<svg id="Capa_1" enable-background="new 0 0 511.984 511.984" height="512" viewBox="0 0 511.984 511.984" width="512" xmlns="http://www.w3.org/2000/svg"><g id="XMLID_406_"><g id="XMLID_167_"><path id="XMLID_201_" d="m341.064 383.984 68.071 118 30.803-52.675h60.434l-81.792-142.056z" fill="#00ccf2"/></g><g id="XMLID_1884_"><path id="XMLID_194_" d="m279.684 13.735c35.941-11.635 75.011 4.549 92.198 38.19 7.365 14.416 19.09 26.141 33.506 33.506 33.641 17.187 49.824 56.257 38.19 92.198-4.986 15.402-4.986 31.983 0 47.385 11.635 35.941-4.549 75.011-38.19 92.198-14.416 7.365-26.141 19.09-33.506 33.506-17.187 33.641-56.257 49.824-92.198 38.19-15.401-4.986-31.983-4.986-47.385 0-35.941 11.634-75.011-4.549-92.198-38.19-7.365-14.416-19.09-26.141-33.506-33.506-33.641-17.187-49.824-56.257-38.19-92.198 4.986-15.402 4.986-31.983 0-47.385-11.634-35.941 4.549-75.011 38.19-92.198 14.416-7.365 26.141-19.09 33.506-33.506 17.188-33.642 56.258-49.825 92.199-38.19 15.401 4.985 31.983 4.985 47.384 0z" fill="#ffcd69"/></g><g id="XMLID_1882_"><ellipse id="XMLID_7_" cx="255.992" cy="201.321" fill="#fff" rx="133.94" ry="133.94" transform="matrix(.707 -.707 .707 .707 -67.377 239.979)"/></g><g id="XMLID_1330_"><path id="XMLID_174_" d="m170.92 383.984-68.071 118-30.803-52.675h-60.434l81.792-142.056z" fill="#00ccf2"/></g><g id="XMLID_1781_"><path id="XMLID_168_" d="m321.196 190.654-65.204 65.204-65.203-65.204 31.457-31.457h67.494z" fill="#00ccf2"/></g><g id="XMLID_204_"><path id="XMLID_208_" d="m509.038 444.319-77.223-134.12c8.029-8.021 14.481-17.595 18.886-28.228 7.9-19.073 8.75-40.395 2.392-60.038-4.365-13.484-4.365-27.74 0-41.226 6.358-19.642 5.509-40.964-2.392-60.038-7.901-19.073-22.378-34.751-40.763-44.145-12.622-6.448-22.702-16.528-29.15-29.15-9.394-18.385-25.071-32.861-44.145-40.763-19.074-7.9-40.395-8.751-60.038-2.392-.001 0-.001 0-.001 0-13.483 4.365-27.739 4.365-41.225 0-19.643-6.359-40.964-5.508-60.038 2.392-19.074 7.901-34.752 22.378-44.145 40.763-6.448 12.622-16.528 22.702-29.151 29.15-18.385 9.394-32.861 25.071-40.762 44.145-7.9 19.074-8.75 40.396-2.392 60.039 4.365 13.484 4.365 27.74 0 41.225-6.359 19.643-5.509 40.964 2.391 60.038 4.404 10.633 10.857 20.206 18.886 28.228l-77.222 134.12c-1.782 3.094-1.778 6.903.009 9.994 1.787 3.092 5.087 4.995 8.657 4.995h54.697l27.908 47.724c1.794 3.067 5.08 4.952 8.632 4.952h.03c3.563-.011 6.852-1.916 8.632-5.003l63.973-110.896c10.579 4.36 21.845 6.557 33.131 6.557 9.023-.001 18.06-1.402 26.765-4.221 13.483-4.366 27.738-4.366 41.226 0 19.594 6.343 40.857 5.51 59.895-2.336l63.972 110.896c1.78 3.086 5.069 4.992 8.633 5.003h.029c3.552 0 6.839-1.885 8.633-4.952l27.907-47.724h54.697c3.57 0 6.87-1.903 8.657-4.995 1.787-3.09 1.791-6.9.009-9.994zm-406.248 37.755-19.184-32.806 26.945-46.797c2.756-4.786 1.11-10.9-3.676-13.656-4.786-2.755-10.9-1.109-13.656 3.676l-26.957 46.817h-37.353l67.127-116.586c1.955 1.204 3.954 2.345 6.009 3.395 12.623 6.448 22.703 16.528 29.151 29.15 6.354 12.436 15.59 23.073 26.8 31.107zm179.975-102.679c-17.515-5.671-36.03-5.671-53.544 0-31.443 10.179-65.178-3.796-80.213-33.227-8.375-16.394-21.468-29.485-37.862-37.861-29.431-15.036-43.404-48.771-33.225-80.213 5.669-17.515 5.669-36.03 0-53.545-10.179-31.442 3.795-65.177 33.225-80.213 16.394-8.376 29.486-21.468 37.862-37.861 11.737-22.975 34.869-36.529 59.411-36.529 6.896 0 13.905 1.07 20.802 3.303 17.515 5.67 36.031 5.67 53.545 0h-.001c31.441-10.176 65.178 3.796 80.214 33.227 8.376 16.394 21.468 29.485 37.861 37.861 29.431 15.036 43.404 48.771 33.227 80.213-5.671 17.515-5.671 36.03 0 53.545 10.178 31.442-3.796 65.177-33.227 80.213-16.394 8.376-29.485 21.468-37.861 37.861-15.038 29.429-48.773 43.401-80.214 33.226zm162.956 59.914-26.957-46.817c-2.756-4.785-8.87-6.433-13.656-3.676-4.786 2.756-6.432 8.87-3.676 13.656l26.945 46.797-19.184 32.806-55.205-95.7c11.21-8.034 20.446-18.671 26.8-31.107 6.448-12.622 16.528-22.702 29.15-29.15 2.056-1.05 4.055-2.191 6.009-3.395l67.128 116.586z"/><path id="XMLID_212_" d="m255.862 77.384c2.64 0 5.21-1.069 7.07-2.93 1.87-1.86 2.931-4.44 2.931-7.07 0-2.64-1.06-5.21-2.931-7.069-1.859-1.87-4.43-2.931-7.07-2.931-2.63 0-5.21 1.061-7.07 2.931-1.86 1.859-2.93 4.43-2.93 7.069 0 2.63 1.07 5.21 2.93 7.07s4.44 2.93 7.07 2.93z"/><path id="XMLID_262_" d="m183.717 183.583c-3.905 3.905-3.905 10.237 0 14.143l65.204 65.203c1.952 1.952 4.512 2.929 7.071 2.929 2.56 0 5.118-.977 7.071-2.929l65.203-65.203c3.905-3.905 3.905-10.237 0-14.143l-31.456-31.457c-1.875-1.875-4.419-2.929-7.071-2.929h-67.494c-2.652 0-5.196 1.054-7.071 2.929zm42.67-14.386h59.21l21.457 21.457-51.062 51.061-51.061-51.061z"/><path id="XMLID_263_" d="m399.932 201.321c0-61.109-38.732-115.721-96.382-135.895-5.211-1.824-10.917.923-12.741 6.136s.923 10.917 6.136 12.741c49.637 17.37 82.987 64.396 82.987 117.018 0 68.341-55.6 123.94-123.94 123.94s-123.94-55.6-123.94-123.94c0-52.518 33.263-99.513 82.771-116.941 5.21-1.834 7.946-7.544 6.112-12.753-1.834-5.21-7.544-7.947-12.753-6.112-57.498 20.242-96.129 74.818-96.129 135.807 0 79.369 64.571 143.94 143.94 143.94s143.939-64.572 143.939-143.941z"/></g></g></svg>